<svg width="35" height="35" viewBox="0 0 35 35" fill="none" xmlns="http://www.w3.org/2000/svg">
<path d="M18.0853 15.6593V16.1591L18.5851 16.1593L28.9125 16.1627H28.9126C29.0988 16.1627 29.25 16.314 29.25 16.5C29.25 16.6859 29.0989 16.8372 28.9128 16.8373C28.9127 16.8373 28.9127 16.8373 28.9126 16.8373L18.5855 16.8338L18.0853 16.8337V17.3338V27.6627C18.0853 27.8487 17.9341 28 17.7479 28C17.5618 28 17.4106 27.8487 17.4106 27.6627V17.3338V16.8338H16.9106H6.58737C6.40123 16.8338 6.25 16.6825 6.25 16.4966C6.25 16.3106 6.40122 16.1593 6.58737 16.1593H16.9106H17.4106V15.6593V5.33726C17.4106 5.15129 17.5618 5 17.7479 5C17.9341 5 18.0853 5.15129 18.0853 5.33726V15.6593Z" fill="white" stroke="white"/>
</svg>
