<svg width="1600" height="850" viewBox="0 0 1600 850" fill="none" xmlns="http://www.w3.org/2000/svg">
<g opacity="0.1">
<path d="M-328.604 385.973C-309.678 479.101 -279.77 569.83 -239.395 656.596C-221.685 694.709 -199.391 734.452 -159.031 753.341C-96.805 782.398 -16.4377 748.18 28.2708 696.974C72.9793 645.767 93.2524 581.393 122.957 522.106C152.662 462.819 198.791 403.441 267.262 385.233C335.733 367.026 409.733 397.169 458.282 443.572C506.83 489.974 535.311 549.986 564.872 608.191C594.433 666.395 627.273 725.415 681.328 766.209C735.383 807.002 816.322 825.086 879.045 793.434C924.849 770.413 952.65 726.832 982.126 687.169C1058.19 583.109 1163.07 490.862 1292.63 451.502C1421.29 412.487 1574.7 434.96 1661.57 525.95" stroke="white" stroke-width="0.5" stroke-miterlimit="10" stroke-linecap="round"/>
<path d="M-330.912 402.166C-309.563 475.144 -281.497 546.195 -247.006 614.574C-239.626 629.097 -232.073 643.546 -224.346 657.923C-204.292 694.762 -179.726 732.739 -138.297 750.827C-76.6202 777.739 1.41387 744.866 45.8872 695.846C90.3605 646.826 111.374 584.282 141.432 526.882C171.49 469.481 217.1 411.972 284.101 393.978C351.102 375.984 423.506 403.848 471.558 447.381C519.611 490.913 549.395 547.937 579.574 603.325C609.753 658.713 643.242 715.126 696.954 754.104C750.665 793.082 829.614 810.523 891.711 780.54C936.894 758.686 965.011 717.283 994.289 679.514C1000.81 671.103 1007.5 662.787 1014.37 654.565C1088.94 565.792 1185.96 488.537 1302.59 453.138C1428.66 414.787 1579.55 434.613 1665.35 519.873" stroke="white" stroke-width="0.5" stroke-miterlimit="10" stroke-linecap="round"/>
<path d="M-333.194 419.077C-305.918 487.722 -273.074 554.301 -234.931 618.275C-226.672 632.144 -218.237 646.13 -209.504 660.002C-187.039 695.486 -160.191 731.768 -117.549 748.961C-56.5655 773.822 19.3148 742.984 63.4405 695.378C107.566 647.772 129.499 587.75 159.931 532.376C190.363 477.002 235.455 421.362 301.042 403.43C366.63 385.498 437.159 411.339 484.958 452.038C532.756 492.736 563.225 546.862 594.332 599.388C625.438 651.915 659.487 705.663 712.711 742.918C765.936 780.173 843.281 796.914 904.509 768.564C948.897 747.759 977.418 708.593 1006.96 672.652C1013.68 664.499 1020.46 656.768 1027.22 648.967C1101.92 564.338 1197.97 490.166 1312.56 455.423C1436.45 417.819 1583.48 435.048 1668.85 514.561" stroke="white" stroke-width="0.5" stroke-miterlimit="10" stroke-linecap="round"/>
<path d="M-335.527 435.632C-301.961 499.677 -264.176 561.734 -222.375 621.471C-213.289 634.502 -203.859 648.272 -194.181 661.575C-169.45 695.797 -140.331 730.313 -96.6092 746.776C-36.4067 769.525 37.2689 740.371 81.1755 694.519C125.082 648.668 147.662 590.919 178.535 537.491C209.408 484.062 253.991 430.362 318.051 412.795C382.111 395.229 451.025 418.649 498.28 456.7C545.535 494.751 577.201 545.689 609.089 595.447C640.978 645.204 675.605 695.855 728.409 731.305C781.212 766.755 856.81 782.889 917.335 756.221C961.22 736.852 989.862 699.606 1019.52 665.514C1026.31 657.924 1033.13 650.474 1039.95 643.024C1114.85 562.457 1209.9 491.228 1322.09 457.407C1444.18 420.425 1587.53 435.175 1673.14 508.767" stroke="white" stroke-width="0.5" stroke-miterlimit="10" stroke-linecap="round"/>
<path d="M-338.093 452.223C-302.991 505.604 -259.208 563.248 -210.274 624.807C-200.131 637.684 -189.781 650.531 -179.225 663.348C-152.161 696.226 -120.837 729.058 -75.969 744.708C-16.6046 765.499 55.0005 737.865 98.3785 693.813C141.757 649.76 165.824 594.092 196.596 542.687C227.368 491.282 271.985 439.443 334.591 421.658C397.197 403.872 464.276 425.55 511.402 460.534C558.527 495.518 590.898 543.698 623.482 590.628C656.066 637.557 691.567 686.072 743.873 719.728C796.179 753.385 870.107 768.901 929.752 743.796C973.084 725.511 1001.86 690.256 1031.73 658.213C1038.33 651.082 1045.2 643.984 1052.34 636.918C1127.77 560.578 1221.89 492.715 1332.45 459.059C1451.92 423.104 1591.89 435.259 1676.97 503.044" stroke="white" stroke-width="0.5" stroke-miterlimit="10" stroke-linecap="round"/>
<path d="M-340.117 468.734C-300.111 516.163 -251.134 569.32 -197.795 628.014C-186.779 640.19 -175.501 652.543 -164.067 664.874C-134.66 696.478 -101.074 727.475 -54.9823 742.301C3.07983 761.2 73.0787 735.02 116.315 692.71C159.551 650.401 183.997 597.332 215.509 547.757C247.021 498.182 290.753 448.409 351.868 430.697C412.984 412.985 478.565 432.512 525.256 465.048C571.946 497.584 605.338 542.458 638.694 586.549C672.051 630.639 707.84 676.241 759.88 708.071C811.92 739.901 883.992 754.609 942.85 731.7C985.571 714.653 1014.61 681.727 1044.71 651.301C1051.63 644.554 1058.56 637.807 1065.5 631.2C1141.03 559.367 1234.21 494.294 1342.79 461.716C1459.72 425.699 1596.05 435.083 1680.88 497.308" stroke="white" stroke-width="0.5" stroke-miterlimit="10" stroke-linecap="round"/>
<path d="M-342.462 485.221C-297.543 526.769 -243.448 575.45 -185.551 631.257C-173.513 642.854 -161.367 654.651 -148.824 666.462C-117.083 696.722 -81.3389 726.256 -34.0343 740.189C23.752 757.19 91.2731 732.447 134.136 691.914C176.998 651.381 202.225 600.423 234.178 552.794C266.131 505.164 309.287 457.412 368.932 439.913C428.577 422.415 492.408 439.685 538.788 469.539C585.167 499.394 619.512 541.044 653.601 582.014C687.689 622.984 724.079 666.202 775.709 696.298C827.339 726.393 897.627 740.787 955.535 718.948C997.635 703.068 1026.98 672.251 1057.2 643.745C1064.18 637.349 1071.16 631.023 1078.16 624.839C1153.6 557.252 1245.81 495.264 1352.35 463.34C1467.41 428.6 1600.4 435.671 1684.75 491.866" stroke="white" stroke-width="0.5" stroke-miterlimit="10" stroke-linecap="round"/>
<path d="M-344.687 501.978C-294.911 537.796 -235.729 581.792 -173.165 634.911C-160.271 645.881 -147.159 657.25 -133.827 668.515C-99.7422 697.502 -62.3347 725.431 -13.0328 738.428C43.5389 753.596 109.211 730.27 151.932 691.48C194.653 652.689 220.223 603.548 252.472 557.956C284.721 512.364 327.746 466.425 385.725 448.882C443.704 431.339 505.98 446.611 552.039 473.713C598.097 500.815 633.309 539.182 667.941 577.92C702.574 616.658 739.753 656.604 790.973 684.965C842.193 713.326 910.924 726.798 967.963 706.593C1009.45 691.95 1039.02 663.252 1069.43 636.514C1076.47 630.61 1083.12 624.692 1090.14 619.151C1166.26 555.77 1257.43 496.876 1362.04 465.305C1475.13 431.137 1604.57 435.496 1688.67 486.202" stroke="white" stroke-width="0.5" stroke-miterlimit="10" stroke-linecap="round"/>
<path d="M-347.063 518.252C-281.83 553.85 -219.641 593.781 -160.982 637.73C-147.065 648.121 -133.087 658.934 -118.877 669.713C-82.4488 697.426 -42.5168 723.696 7.44659 735.807C62.9787 749.261 126.782 727.211 169.217 690.256C211.651 653.302 238.383 606.718 270.696 563.198C303.01 519.678 345.681 475.656 402.294 457.953C458.906 440.25 519.416 453.697 565.076 478.059C610.736 502.42 647.029 537.903 682.723 573.616C718.418 609.329 755.791 646.808 806.668 673.353C857.545 699.898 924.606 712.752 981.008 694.146C1022.01 681.009 1051.75 654.08 1082.19 629.202C1089.29 623.65 1095.84 618.176 1102.95 612.694C1179.39 553.645 1269.64 497.754 1372.22 466.837C1482.83 433.533 1608.76 435.531 1692.44 480.055" stroke="white" stroke-width="0.5" stroke-miterlimit="10" stroke-linecap="round"/>
<path d="M-349.783 534.868C-278.875 563.761 -211.632 599.338 -149.123 641.032C-134.272 650.785 -119.261 661.088 -104.173 671.381C-65.4118 697.75 -23.4093 722.5 27.8346 733.635C82.3477 745.515 144.272 724.671 186.349 689.06C228.425 653.449 256.02 609.538 289.074 567.848C322.127 526.158 363.826 484.144 419.133 466.702C474.441 449.26 533.509 460.406 578.842 482.518C624.175 504.631 661.381 536.608 697.76 569.423C734.14 602.238 772.208 636.889 822.355 661.674C872.502 686.46 938.357 698.628 993.426 681.723C1033.76 669.471 1063.79 645.013 1094.58 622.022C1101.74 616.891 1108.35 611.839 1115.44 606.79C1192.01 551.884 1281.52 498.972 1381.83 468.815C1490.55 436.073 1612.95 435.57 1695.95 474.309" stroke="white" stroke-width="0.5" stroke-miterlimit="10" stroke-linecap="round"/>
<path d="M-351.663 551.287C-275.478 573.27 -203.09 604.415 -136.377 643.914C-120.581 653.099 -104.703 662.846 -88.6291 672.852C-47.5348 697.877 -3.5289 721.188 49.0628 731.266C101.654 741.344 162.602 721.934 204.5 688.358C246.399 654.782 274.677 612.853 307.976 572.85C341.274 532.846 382.738 493.019 436.477 475.661C490.216 458.304 547.312 467.296 592.263 486.236C638.564 505.768 675.377 534.501 712.529 564.477C749.681 594.453 788.315 627.012 838.361 650.018C888.407 673.024 952.117 684.571 1006.47 669.277C1046.18 658.122 1076.52 635.842 1107.43 614.7C1114.65 609.991 1121.34 605.501 1128.38 600.674C1205.25 549.959 1293.6 500.587 1392.05 470.629C1498.04 438.714 1617.15 435.606 1699.92 468.492" stroke="white" stroke-width="0.5" stroke-miterlimit="10" stroke-linecap="round"/>
<path d="M-353.986 567.913C-272.912 583.142 -195.341 610.032 -124.147 647.589C-107.107 656.091 -90.5836 665.385 -73.6631 674.694C-30.2253 698.445 15.8612 720.305 69.8779 729.315C122.198 738.069 180.488 719.404 221.879 687.768C263.269 656.132 292.637 616.269 326.33 578.433C360.023 540.596 400.958 502.568 453.274 485.202C505.589 467.837 560.976 474.853 605.45 491.063C651.683 507.95 689.228 533.563 727.152 560.7C765.077 587.836 804.297 617.368 853.923 638.569C903.549 659.771 965.837 670.233 1019.2 656.805C1058.29 646.887 1088.86 626.656 1120.04 607.412C1126.92 603.111 1133.97 598.857 1141.08 594.522C1218.17 548.08 1305.49 501.369 1402.03 472.407C1505.96 441.007 1621.33 435.571 1703.94 462.453" stroke="white" stroke-width="0.5" stroke-miterlimit="10" stroke-linecap="round"/>
<path d="M-356.365 584.191C-282.181 590.053 -197.225 611.859 -111.869 650.541C-94.1932 658.52 -76.5339 666.932 -58.6279 675.953C-12.8466 698.431 35.2534 718.922 90.6076 726.804C141.79 733.714 198.309 716.455 239.635 686.551C280.961 656.646 310.435 619.136 344.723 583.222C379.012 547.309 419.294 511.313 470.042 494.031C520.789 476.75 574.667 481.546 618.754 495.086C664.83 509.268 703.107 531.761 741.814 556.129C780.521 580.497 820.36 607.211 869.498 626.69C918.636 646.168 978.908 656.35 1031.69 644.37C1069.93 635.652 1101.03 617.496 1132.33 600.101L1153.46 588.417C1230.78 546.247 1317.2 502.609 1411.71 474.302C1513.47 443.79 1625.36 435.56 1707.63 456.824" stroke="white" stroke-width="0.5" stroke-miterlimit="10" stroke-linecap="round"/>
<path d="M-358.65 600.523C-279.631 600.515 -189.556 617.845 -99.6416 653.64C-81.0216 661.051 -62.3665 669.246 -43.5464 677.489C4.49079 698.635 54.6919 717.815 111.441 724.418C161.531 730.339 216.167 713.713 257.196 685.573C298.226 657.434 328.965 622.108 363.385 588.185C397.805 554.261 437.858 519.949 487.145 502.952C536.432 485.955 588.674 488.19 632.325 499.281C678.236 510.689 717.311 529.98 756.811 551.65C796.311 573.319 836.643 597.45 885.408 614.902C934.172 632.354 992.68 642.361 1044.64 631.792C1082.57 624.196 1113.6 608.274 1145.08 592.718L1166.4 582.228C1244 544.25 1329.45 503.626 1421.92 476.044C1521.38 445.94 1629.77 435.49 1711.67 450.923" stroke="white" stroke-width="0.5" stroke-miterlimit="10" stroke-linecap="round"/>
<path d="M-361.012 616.87C-277.089 610.911 -181.897 623.765 -87.3465 656.662C-67.7818 663.505 -48.182 671.132 -28.7939 678.934C21.5093 698.817 73.7443 716.769 131.887 722.093C182.45 725.414 233.147 712.113 274.835 684.589C315.336 658.249 347.099 625.07 381.893 593.174C416.686 561.277 456.251 529.045 504.404 511.854C550.074 496.484 599.318 493.541 646.043 503.388C690.074 512.748 732.372 527.474 771.809 547.174C811.422 565.813 852.702 587.223 900.777 603.196C948.852 619.17 1005.92 627.951 1057.12 619.216C1094.36 612.868 1125.31 599.11 1157.37 585.336L1178.7 576.064C1256.53 542.358 1340.99 504.747 1431.5 477.809C1529.13 448.689 1633.94 435.316 1715.39 445.001" stroke="white" stroke-width="0.5" stroke-miterlimit="10" stroke-linecap="round"/>
<path d="M-363.31 633.134C-274.561 621.235 -174.174 629.603 -74.9775 659.671C-54.4782 665.876 -33.9236 673.005 -13.3484 680.276C39.4429 698.792 93.5674 715.608 153.095 719.583C202.25 721.711 251.251 708.987 292.518 683.381C332.8 658.795 365.364 627.868 400.521 597.928C435.678 567.987 474.735 537.695 521.088 520.622C565.43 505.254 613.132 500.795 659.312 507.701C703.345 514.226 746.084 526.035 786.427 542.824C827.101 558.438 868.973 577.394 916.937 591.517C964.902 605.641 1020 613.92 1070.32 606.747C1104.72 600.848 1138.31 591.144 1170.34 577.852L1191.77 569.785C1269.62 539.953 1352.83 505.752 1441.64 479.062C1536.79 450.875 1638.06 434.86 1719.3 438.692" stroke="white" stroke-width="0.5" stroke-miterlimit="10" stroke-linecap="round"/>
<path d="M-365.675 649.482C-264.344 631.62 -160.451 636.208 -62.8203 662.856C-41.3764 668.493 -19.9442 675.136 1.5756 681.838C56.633 699.092 112.812 714.82 173.791 717.364C221.631 718.365 269.092 706.214 310.009 682.489C349.866 659.328 383.262 630.864 418.695 602.821C454.128 574.778 492.842 546.473 537.781 529.462C580.731 513.849 626.867 507.707 672.356 511.546C716.418 515.284 759.616 524.173 800.896 537.994C842.306 551.061 884.697 567.072 932.329 579.449C979.961 591.827 1033.29 599.359 1082.75 593.889C1116.78 589.346 1150.26 581.446 1182.6 570.329L1204.26 563.809C1282.54 538.075 1365.15 506.761 1451.57 481.063C1544.48 453.203 1642.42 434.945 1723.2 432.958" stroke="white" stroke-width="0.5" stroke-miterlimit="10" stroke-linecap="round"/>
<path d="M-368.268 664.282C-263.381 640.207 -154.282 640.203 -50.8437 664.271C-28.4652 669.27 -6.07807 675.415 16.3967 681.62C74.0195 697.497 131.964 712.322 194.276 713.165C240.801 713.016 286.76 701.375 327.268 679.477C366.957 658.421 401.124 631.998 437.029 606.111C472.933 580.223 511.108 553.647 554.479 536.721C596.194 520.946 640.826 513.21 685.512 514.01C729.613 514.935 773.257 520.934 815.411 531.864C857.516 542.104 900.535 555.368 947.757 566.011C995.482 577.7 1045.16 582.323 1094.91 579.707C1128.74 576.478 1162.24 570.285 1194.95 561.215C1202.12 559.454 1209.27 557.553 1216.58 555.63C1295.24 534.72 1376.61 506.313 1461.31 481.225C1552.22 454.301 1646.22 433.387 1726.79 425.548" stroke="white" stroke-width="0.5" stroke-miterlimit="10" stroke-linecap="round"/>
<path d="M-370.931 678.017C-262.562 647.893 -148.307 643.311 -39.0043 664.704C-15.6038 669.123 7.65074 674.712 31.003 680.431C90.8044 694.986 150.988 708.911 214.664 708.265C259.8 707.119 304.271 696.1 344.328 676.137C382.864 655.983 419.85 633.387 455.004 608.522C491.039 584.625 528.949 560.025 570.906 543.16C611.454 527.118 654.667 517.868 698.428 515.865C742.645 513.893 786.807 516.945 829.896 524.952C872.784 532.422 916.364 543.021 963.155 551.79C1010.26 561.531 1058.67 565.869 1107.27 564.707C1140.72 562.787 1174.01 558.354 1206.81 551.455L1228.52 547.006C1307.39 530.228 1388.33 504.826 1470.45 480.472C1555.53 454.401 1642.19 433.244 1729.91 417.129" stroke="white" stroke-width="0.5" stroke-miterlimit="10" stroke-linecap="round"/>
<path d="M-373.384 693.73C-261.531 657.599 -142.078 648.418 -26.801 667.091C-2.56383 670.743 21.8981 675.941 45.9731 681.196C108.041 694.489 170.397 707.596 235.406 705.248C279.265 703.045 322.387 692.522 362.009 674.355C400.553 656.026 437.787 635.413 473.466 612.654C509.78 589.429 548.017 568.871 587.8 551.181C627.27 534.756 669.088 523.837 711.816 518.797C756.027 514.035 800.563 514.236 844.421 519.395C888.122 524.307 932.341 532.23 978.401 539.239C1024.99 547.051 1072.35 551.091 1119.94 551.31C1153.16 550.715 1186.35 548.023 1219.29 543.253L1241.42 540.035C1320.51 527.46 1400.16 505.186 1480.63 481.431C1566.84 455.908 1654.16 429.794 1734.06 410.354" stroke="white" stroke-width="0.5" stroke-miterlimit="10" stroke-linecap="round"/>
<path d="M-375.791 709.796C-260.46 667.899 -135.891 654.143 -14.6184 669.913C10.7021 673.408 35.8256 677.72 61.0001 682.384C125.431 694.544 189.785 706.715 256.117 702.597C298.633 699.386 340.404 689.402 379.526 673.1C418.172 656.593 455.704 637.906 491.898 617.151C528.442 596.327 566.059 577.158 604.607 559.717C643.091 542.898 683.599 530.476 725.189 522.738C769.469 515.15 814.445 512.441 859.141 514.672C903.538 516.757 948.405 522.074 994.355 527.233C1040.3 532.392 1086.92 537.813 1132.91 538.304C1165.96 539.069 1199.09 538.086 1232.12 535.36C1239.39 534.805 1246.72 534.099 1254.03 533.322C1333.35 525.02 1412.09 505.748 1490.52 482.649C1574.55 457.873 1658.31 429.55 1737.72 404.01" stroke="white" stroke-width="0.5" stroke-miterlimit="10" stroke-linecap="round"/>
<path d="M-377.977 726.833C-259.175 679.231 -129.506 660.898 -2.21439 673.706C91.0741 683.249 183.076 709.484 277.05 700.915C442.305 685.858 577.609 567.516 738.659 527.883C910.544 485.597 1090.02 537.362 1266.78 528.094C1431.51 519.716 1588.64 459.124 1741.73 398.977" stroke="white" stroke-width="0.5" stroke-miterlimit="10" stroke-linecap="round"/>
</g>
</svg>
