<svg width="10" height="11" viewBox="0 0 10 11" fill="none" xmlns="http://www.w3.org/2000/svg">
<path d="M9.6254 2.957L4.9969 7.58593L0.368401 2.957C0.282053 2.87359 0.14443 2.87599 0.0610164 2.96234C-0.0203388 3.04659 -0.0203388 3.18014 0.0610164 3.26437L4.84342 8.04677C4.92831 8.13163 5.06591 8.13163 5.15081 8.04677L9.93322 3.26437C10.0196 3.18095 10.0219 3.04335 9.93856 2.95698C9.85514 2.87063 9.71754 2.86825 9.63117 2.95164C9.62936 2.95339 9.62758 2.95517 9.62583 2.95698L9.6254 2.957Z" fill="#394854"/>
<path d="M4.99734 8.11068C4.96877 8.11074 4.94047 8.10516 4.91406 8.09427C4.88766 8.08337 4.86365 8.06738 4.84343 8.0472L0.061024 3.26479C-0.0223895 3.17845 -0.0199847 3.04082 0.0663635 2.95741C0.150613 2.87605 0.28416 2.87605 0.368388 2.95741L4.99732 7.58591L9.62582 2.95698C9.70923 2.87063 9.84684 2.86825 9.9332 2.95164C10.0196 3.03505 10.0219 3.17266 9.93854 3.25903C9.93679 3.26084 9.93502 3.26261 9.9332 3.26437L5.15082 8.04677C5.11014 8.08756 5.05494 8.11055 4.99734 8.11068Z" fill="#394854"/>
</svg>
