<svg width="15" height="8" viewBox="0 0 15 8" fill="none" xmlns="http://www.w3.org/2000/svg">
<path d="M14.4381 0.099564L7.49535 7.04296L0.552602 0.099564C0.423079 -0.0255562 0.216645 -0.021949 0.0915246 0.107573C-0.0305082 0.233947 -0.0305082 0.434267 0.0915246 0.56061L7.26514 7.73422C7.39246 7.86151 7.59886 7.86151 7.72621 7.73422L14.8998 0.56061C15.0293 0.43549 15.0329 0.229086 14.9078 0.0995335C14.7827 -0.0299887 14.5763 -0.0335654 14.4468 0.0915243C14.444 0.0941532 14.4414 0.0968128 14.4387 0.0995335L14.4381 0.099564Z" fill="white"/>
<path d="M7.49601 7.83009C7.45316 7.83017 7.41071 7.8218 7.3711 7.80546C7.33148 7.78912 7.29548 7.76513 7.26515 7.73486L0.091536 0.561252C-0.0335842 0.43173 -0.029977 0.225296 0.0995452 0.100176C0.225919 -0.0218572 0.42624 -0.0218572 0.552583 0.100176L7.49598 7.04293L14.4387 0.0995335C14.5638 -0.0299887 14.7703 -0.0335654 14.8998 0.0915243C15.0293 0.216645 15.0329 0.423049 14.9078 0.552602C14.9052 0.555322 14.9025 0.557982 14.8998 0.560611L7.72622 7.73422C7.66521 7.7954 7.58241 7.82988 7.49601 7.83009Z" fill="white"/>
</svg>
