<svg width="15" height="15" viewBox="0 0 15 15" fill="none" xmlns="http://www.w3.org/2000/svg">
<g opacity="0.75">
<path d="M14.4381 3.6855L7.49535 10.6289L0.552602 3.6855C0.423079 3.56038 0.216645 3.56399 0.0915246 3.69351C-0.0305082 3.81988 -0.0305082 4.0202 0.0915246 4.14655L7.26514 11.3202C7.39246 11.4475 7.59886 11.4475 7.72621 11.3202L14.8998 4.14655C15.0293 4.02143 15.0329 3.81502 14.9078 3.68547C14.7827 3.55595 14.5763 3.55237 14.4468 3.67746C14.444 3.68009 14.4414 3.68275 14.4387 3.68547L14.4381 3.6855Z" fill="#676767"/>
<path d="M7.49601 11.416C7.45316 11.4161 7.41071 11.4077 7.3711 11.3914C7.33148 11.3751 7.29548 11.3511 7.26515 11.3208L0.091536 4.14719C-0.0335842 4.01767 -0.029977 3.81123 0.0995452 3.68611C0.225919 3.56408 0.42624 3.56408 0.552583 3.68611L7.49598 10.6289L14.4387 3.68547C14.5638 3.55595 14.7703 3.55237 14.8998 3.67746C15.0293 3.80258 15.0329 4.00899 14.9078 4.13854C14.9052 4.14126 14.9025 4.14392 14.8998 4.14655L7.72622 11.3202C7.66521 11.3813 7.58241 11.4158 7.49601 11.416Z" fill="#676767"/>
</g>
</svg>
