<svg width="27" height="27" viewBox="0 0 27 27" fill="none" xmlns="http://www.w3.org/2000/svg">
<circle cx="13.5" cy="13.5" r="13.5" fill="#3A5469"/>
<path fill-rule="evenodd" clip-rule="evenodd" d="M11.9815 11.7098H14.1751V12.8025C14.4911 12.174 15.3014 11.6094 16.5187 11.6094C18.8522 11.6094 19.4062 12.8604 19.4062 15.1555V19.4062H17.0437V15.6782C17.0437 14.3712 16.7278 13.6341 15.9233 13.6341C14.8076 13.6341 14.344 14.4285 14.344 15.6776V19.4062H11.9815V11.7098ZM7.93041 19.3058H10.2929V11.6094H7.93041V19.3058ZM10.6313 9.09984C10.6314 9.29787 10.5921 9.49393 10.5158 9.67664C10.4395 9.85935 10.3275 10.0251 10.1866 10.1642C9.90097 10.448 9.51435 10.6069 9.11166 10.6059C8.70967 10.6057 8.32395 10.4472 8.0379 10.1647C7.89746 10.0252 7.78593 9.85928 7.70972 9.67655C7.6335 9.49381 7.59409 9.29784 7.59375 9.09984C7.59375 8.69999 7.75322 8.31727 8.03849 8.03495C8.32429 7.75213 8.71017 7.59357 9.11225 7.59375C9.51505 7.59375 9.90132 7.75263 10.1866 8.03495C10.4713 8.31727 10.6313 8.69999 10.6313 9.09984Z" fill="white"/>
</svg>
